<?xml version="1.0" encoding="UTF-8"?>
<svg xmlns="http://www.w3.org/2000/svg" viewBox="0 0 512 512">
  <defs>
    <linearGradient id="g" x1="0" y1="0" x2="1" y2="1">
      <stop offset="0%" stop-color="#2e7d32"/>
      <stop offset="100%" stop-color="#1b5e20"/>
    </linearGradient>
  </defs>
  <circle cx="256" cy="256" r="240" fill="url(#g)"/>
  <g fill="#ffffff">
    <path d="M160 368l24-72a144 144 0 1132 32l-72 24zm96-240a112 112 0 100 224 112 112 0 000-224z" opacity=".2"/>
    <path d="M144 360l26-79c-13-22-20-47-20-73 0-79 64-144 144-144s144 65 144 144-64 144-144 144c-26 0-51-7-73-20l-77 28zM208 208c0 52 44 96 96 96 9 0 16-7 16-16 0-5-3-10-7-13l-25-15c-6-4-14-2-18 4-2 3-5 6-8 6-21-4-38-21-42-42 0-3 3-6 6-8 6-4 8-12 4-18l-15-25c-3-4-8-7-13-7-9 0-16 7-16 16z"/>
  </g>
</svg>
